<svg width="1728" height="612" viewBox="0 0 1728 612" fill="none" xmlns="http://www.w3.org/2000/svg">
<path d="M1728 0H0V612H1728V0Z" fill="#F5F5F7"/>
<mask id="mask0_762_921" style="mask-type:luminance" maskUnits="userSpaceOnUse" x="0" y="0" width="1728" height="612">
<path d="M1728 0H0V612H1728V0Z" fill="white"/>
</mask>
<g mask="url(#mask0_762_921)">
<path opacity="0.15" d="M2247.39 1450.33L1180.19 276.41L1261.99 186.43L2319.25 1349.4L2247.39 1450.33Z" fill="url(#paint0_linear_762_921)"/>
<path opacity="0.15" d="M2338.68 1344.53L1357.45 251.2L1436.79 163.93L2425.09 1251.06L2338.68 1344.53Z" fill="url(#paint1_linear_762_921)"/>
<path opacity="0.07" d="M1825.89 1627.59L471.55 137.81L596.55 0.299988L1950.89 1490.07L1825.89 1627.59Z" fill="url(#paint2_linear_762_921)"/>
<path opacity="0.15" d="M2311.32 1629.88L1036.52 227.6L1073.42 187L2357.67 1599.68L2311.32 1629.88Z" fill="url(#paint3_linear_762_921)"/>
<path opacity="0.15" d="M-169.64 1018.32L590.37 182.31L643.27 240.5L-113.98 1073.48L-169.64 1018.32Z" fill="url(#paint4_linear_762_921)"/>
<path opacity="0.15" d="M-394.06 965L457.17 28.64L536.51 115.91L-307.42 1044.24L-394.06 965Z" fill="url(#paint5_linear_762_921)"/>
<path opacity="0.15" d="M-150.77 598.87L280.84 124.1L302.03 147.4L-132.61 625.5L-150.77 598.87Z" fill="url(#paint6_linear_762_921)"/>
<path opacity="0.15" d="M997.23 748.48L1550.63 124.22L1737.77 330.08L1183.41 939.88L997.23 748.48Z" fill="url(#paint7_linear_762_921)"/>
<path opacity="0.15" d="M583.43 1520.54L-349.69 533.73L45.9701 98.51L987.93 1134.67L583.43 1520.54Z" fill="url(#paint8_linear_762_921)"/>
<path opacity="0.15" d="M-430.7 1548.61L940.46 40.34L1119.33 237.1L-280.51 1776.92L-430.7 1548.61Z" fill="url(#paint9_linear_762_921)"/>
</g>
<defs>
<linearGradient id="paint0_linear_762_921" x1="1179.51" y1="211.196" x2="1359.02" y2="844.102" gradientUnits="userSpaceOnUse">
<stop stop-color="white" stop-opacity="0"/>
<stop offset="1" stop-opacity="0.7"/>
</linearGradient>
<linearGradient id="paint1_linear_762_921" x1="1342.44" y1="186.319" x2="1492.85" y2="769.662" gradientUnits="userSpaceOnUse">
<stop stop-color="white" stop-opacity="0"/>
<stop offset="1" stop-opacity="0.4"/>
</linearGradient>
<linearGradient id="paint2_linear_762_921" x1="710.802" y1="247.156" x2="609.336" y2="504.293" gradientUnits="userSpaceOnUse">
<stop stop-color="#C7C7C7" stop-opacity="0.15"/>
<stop offset="1" stop-opacity="0.8"/>
</linearGradient>
<linearGradient id="paint3_linear_762_921" x1="974.475" y1="179.365" x2="866.589" y2="673.966" gradientUnits="userSpaceOnUse">
<stop stop-color="white" stop-opacity="0"/>
<stop offset="0.9" stop-opacity="0.6"/>
</linearGradient>
<linearGradient id="paint4_linear_762_921" x1="668.266" y1="207.279" x2="1.8234" y2="566.589" gradientUnits="userSpaceOnUse">
<stop offset="0.41" stop-color="white" stop-opacity="0.33"/>
<stop offset="1"/>
</linearGradient>
<linearGradient id="paint5_linear_762_921" x1="462.302" y1="159.157" x2="-304.932" y2="242.055" gradientUnits="userSpaceOnUse">
<stop offset="0.15" stop-color="white" stop-opacity="0.07"/>
<stop offset="1"/>
</linearGradient>
<linearGradient id="paint6_linear_762_921" x1="214.971" y1="239.521" x2="133.136" y2="181.403" gradientUnits="userSpaceOnUse">
<stop stop-color="white" stop-opacity="0.2"/>
<stop offset="1"/>
</linearGradient>
<linearGradient id="paint7_linear_762_921" x1="1624.62" y1="155.467" x2="1637.43" y2="646.208" gradientUnits="userSpaceOnUse">
<stop stop-opacity="0.05"/>
<stop offset="1" stop-opacity="0.15"/>
</linearGradient>
<linearGradient id="paint8_linear_762_921" x1="-145.306" y1="260.384" x2="-209.682" y2="483.562" gradientUnits="userSpaceOnUse">
<stop offset="0.05" stop-opacity="0.15"/>
<stop offset="1" stop-opacity="0.6"/>
</linearGradient>
<linearGradient id="paint9_linear_762_921" x1="814.082" y1="165.39" x2="976.581" y2="637.454" gradientUnits="userSpaceOnUse">
<stop stop-color="white" stop-opacity="0.2"/>
<stop offset="0.56" stop-opacity="0.2"/>
</linearGradient>
</defs>
</svg>
